<svg width="256" height="256" viewBox="0 0 256 256" fill="none" xmlns="http://www.w3.org/2000/svg">
<g clip-path="url(#clip0_81_2)">
<path d="M230.831 205.513C231.429 207.743 231.38 209.963 230.685 212.172C230.035 214.552 228.928 216.596 227.363 218.302C225.626 220.055 223.642 221.23 221.412 221.827C219.182 222.425 216.962 222.376 214.754 221.681C212.373 221.031 210.307 219.838 208.554 218.102C206.848 216.536 205.696 214.639 205.098 212.408C204.501 210.178 204.526 207.873 205.176 205.492C205.871 203.284 207.087 201.303 208.824 199.55C210.389 197.844 212.287 196.692 214.517 196.094C216.747 195.497 219.053 195.523 221.433 196.172C223.642 196.867 225.599 197.997 227.306 199.563C229.058 201.3 230.234 203.283 230.831 205.513ZM206.101 214.72L150.03 108.391L173.731 95.9721L229.803 202.302L206.101 214.72ZM174.904 98.9183C175.502 101.148 175.453 103.368 174.758 105.577C174.108 107.957 172.915 110.024 171.178 111.776C169.613 113.483 167.715 114.635 165.485 115.232C163.255 115.83 160.95 115.804 158.569 115.155C156.36 114.46 154.38 113.243 152.627 111.507C150.921 109.941 149.769 108.044 149.171 105.813C148.574 103.583 148.622 101.364 149.318 99.1548C149.967 96.7744 151.074 94.731 152.64 93.0245C154.376 91.272 156.36 90.097 158.59 89.4994C160.82 88.9018 163.04 88.9507 165.249 89.6459C167.629 90.2951 169.696 91.4882 171.448 93.2251C173.154 94.7904 174.307 96.6881 174.904 98.9183ZM151.115 109.981L106.076 44.8241L127.921 29.5936L172.96 94.7506L151.115 109.981ZM130.119 34.308C130.717 36.5381 130.668 38.7577 129.973 40.9665C129.323 43.3469 128.13 45.4134 126.393 47.1658C124.828 48.8723 122.93 50.0244 120.7 50.622C118.47 51.2195 116.165 51.1937 113.784 50.5444C111.576 49.8492 109.595 48.6332 107.842 46.8963C106.136 45.331 104.984 43.4332 104.386 41.2031C103.789 38.9729 103.837 36.7534 104.533 34.5445C105.182 32.1641 106.289 30.1207 107.855 28.4141C109.591 26.6617 111.575 25.4866 113.805 24.8891C116.035 24.2915 118.255 24.3403 120.464 25.0355C122.844 25.6848 124.911 26.8779 126.663 28.6147C128.37 30.18 129.522 32.0778 130.119 34.308ZM130.28 40.0566L119.717 103.564L93.6613 98.9619L104.225 35.4544L130.28 40.0566ZM119.498 97.1998C120.096 99.43 120.047 101.65 119.352 103.858C118.703 106.239 117.509 108.305 115.773 110.058C114.207 111.764 112.31 112.916 110.079 113.514C107.849 114.111 105.544 114.086 103.163 113.436C100.955 112.741 98.974 111.525 97.2215 109.788C95.515 108.223 94.3629 106.325 93.7654 104.095C93.1678 101.865 93.2166 99.6452 93.9118 97.4364C94.5611 95.056 95.6684 93.0125 97.2337 91.306C98.9705 89.5535 100.954 88.3785 103.184 87.7809C105.414 87.1834 107.634 87.2322 109.843 87.9274C112.223 88.5767 114.29 89.7697 116.042 91.5066C117.749 93.0719 118.901 94.9696 119.498 97.1998ZM95.2453 107.56L46.0691 26.9629L68.842 13.1384L118.018 93.7351L95.2453 107.56ZM70.5722 17.1347C71.1697 19.3649 71.1209 21.5844 70.4257 23.7932C69.7764 26.1736 68.5834 28.2401 66.8465 29.9926C65.2812 31.6991 63.3835 32.8511 61.1533 33.4487C58.9231 34.0463 56.6178 34.0204 54.2374 33.3712C52.0285 32.6759 50.0479 31.4599 48.2954 29.723C46.5889 28.1577 45.4368 26.26 44.8393 24.0298C44.2417 21.7996 44.2905 19.5801 44.9857 17.3712C45.635 14.9908 46.7423 12.9474 48.3076 11.2409C50.0445 9.48839 52.028 8.31336 54.2582 7.71579C56.4883 7.11821 58.7079 7.16704 60.9167 7.86226C63.2971 8.51152 65.3636 9.70458 67.116 11.4414C68.8225 13.0068 69.9746 14.9045 70.5722 17.1347ZM69.1255 27.1755L50.2877 59.8035L27.4481 46.617L46.2859 13.989L69.1255 27.1755ZM51.6691 49.1169C52.2667 51.3471 52.2178 53.5666 51.5226 55.7755C50.8734 58.1559 49.6803 60.2223 47.9434 61.9748C46.3781 63.6813 44.4804 64.8333 42.2502 65.4309C40.02 66.0285 37.7147 66.0027 35.3343 65.3534C33.1255 64.6582 31.1448 63.4421 29.3923 61.7053C27.6858 60.14 26.5338 58.2422 25.9362 56.012C25.3386 53.7818 25.3875 51.5623 26.0827 49.3535C26.7319 46.9731 27.8392 44.9296 29.4045 43.2231C31.1414 41.4706 33.1249 40.2956 35.3551 39.698C37.5853 39.1005 39.8048 39.1493 42.0136 39.8445C44.3941 40.4938 46.4605 41.6868 48.213 43.4237C49.9195 44.989 51.0715 46.8867 51.6691 49.1169Z" fill="#7BF1A8"/>
</g>
<defs>
<clipPath id="clip0_81_2">
<rect width="256" height="256" fill="white"/>
</clipPath>
</defs>
</svg>
