<svg width="479" height="84" viewBox="0 0 479 84" fill="none" xmlns="http://www.w3.org/2000/svg">
<g clip-path="url(#clip0_82_6)">
<path d="M113.925 67.6555C109.73 67.6555 105.862 66.9563 102.323 65.558C98.827 64.1159 96.0959 62.1495 94.1295 59.6587C93.7799 59.2217 93.6051 58.7629 93.6051 58.2822C93.6051 57.6704 93.9328 57.0805 94.5883 56.5124C94.9379 56.2502 95.3093 56.1191 95.7026 56.1191C96.4892 56.1191 97.1884 56.4906 97.8001 57.2334C99.5918 59.1999 101.842 60.7293 104.552 61.8218C107.305 62.8705 110.429 63.3949 113.925 63.3949C117.77 63.3949 120.742 62.6957 122.839 61.2974C124.937 59.8553 125.986 57.8234 125.986 55.2015C125.986 52.9292 124.959 51.0938 122.905 49.6955C120.895 48.2971 117.464 47.0517 112.614 45.9593C106.278 44.5609 101.711 42.813 98.9144 40.7155C96.1615 38.5743 94.785 35.7557 94.785 32.2599C94.785 28.6329 96.3144 25.7707 99.3733 23.6732C102.476 21.532 106.649 20.4613 111.893 20.4613C115.869 20.4613 119.453 21.1605 122.643 22.5589C125.876 23.9572 128.17 25.8362 129.525 28.1959C129.787 28.6329 129.918 29.0481 129.918 29.4413C129.918 30.1405 129.547 30.7523 128.804 31.2767C128.498 31.4515 128.149 31.5389 127.755 31.5389C126.794 31.5389 126.051 31.1674 125.527 30.4246C124.259 28.5892 122.468 27.1909 120.152 26.2295C117.836 25.2245 115.083 24.7219 111.893 24.7219C103.809 24.7219 99.7666 27.2346 99.7666 32.2599C99.7666 33.7893 100.182 35.0784 101.012 36.1272C101.842 37.1322 103.175 38.0499 105.01 38.8802C106.889 39.6667 109.489 40.4533 112.81 41.2399C119.278 42.7693 123.932 44.6265 126.772 46.8114C129.612 48.9526 131.033 51.7493 131.033 55.2015C131.033 59.0469 129.481 62.0839 126.379 64.3126C123.32 66.5412 119.169 67.6555 113.925 67.6555ZM148.533 67.6555C146.873 67.6555 145.431 67.1311 144.207 66.0823C142.984 64.9899 142.197 63.5478 141.847 61.7562L136.866 36.6516C136.735 35.9524 136.888 35.3843 137.325 34.9473C137.762 34.4666 138.352 34.2263 139.094 34.2263C139.968 34.2263 140.602 34.3792 140.995 34.6851C141.432 34.9473 141.716 35.4499 141.847 36.1927L146.567 61.2318C146.829 62.7613 147.485 63.526 148.533 63.526C149.145 63.526 149.604 63.3512 149.91 63.0016C150.216 62.652 150.434 62.0621 150.565 61.2318L154.105 39.1424C154.323 37.7003 154.935 36.5205 155.94 35.6028C156.945 34.6851 158.125 34.2263 159.48 34.2263C160.834 34.2263 162.014 34.6851 163.019 35.6028C164.068 36.5205 164.702 37.7003 164.92 39.1424L168.394 61.2318C168.525 62.0621 168.744 62.652 169.05 63.0016C169.399 63.3512 169.88 63.526 170.492 63.526C171.54 63.526 172.196 62.7613 172.458 61.2318L177.112 36.1927C177.243 35.4499 177.505 34.9473 177.899 34.6851C178.336 34.3792 178.991 34.2263 179.865 34.2263C180.695 34.2263 181.307 34.4666 181.7 34.9473C182.137 35.428 182.29 35.9961 182.159 36.6516L177.112 61.7562C176.719 63.5915 175.91 65.0336 174.687 66.0823C173.463 67.1311 172.065 67.6555 170.492 67.6555C166.952 67.6555 164.855 65.6454 164.199 61.6251L160.725 40.06C160.507 38.9239 160.092 38.3558 159.48 38.3558C158.824 38.3558 158.409 38.9239 158.234 40.06L154.76 61.6251C154.105 65.6454 152.029 67.6555 148.533 67.6555ZM193.44 27.2783C192.479 27.2783 191.649 26.9724 190.95 26.3606C190.294 25.7051 189.966 24.9186 189.966 24.0009C189.966 23.0832 190.294 22.2967 190.95 21.6412C191.649 20.9857 192.479 20.658 193.44 20.658C194.402 20.658 195.232 21.0076 195.931 21.7067C196.674 22.3622 197.046 23.1269 197.046 24.0009C197.046 24.8749 196.674 25.6396 195.931 26.2951C195.232 26.9505 194.402 27.2783 193.44 27.2783ZM193.44 67.6555C192.698 67.6555 192.108 67.437 191.671 67C191.277 66.5193 191.081 65.8638 191.081 65.0336V36.8482C191.081 36.0179 191.277 35.3843 191.671 34.9473C192.108 34.4666 192.698 34.2263 193.44 34.2263C194.227 34.2263 194.817 34.4666 195.21 34.9473C195.647 35.3843 195.866 36.0179 195.866 36.8482V65.0336C195.866 65.8638 195.647 66.5193 195.21 67C194.817 67.437 194.227 67.6555 193.44 67.6555ZM228.181 60.5108C228.661 60.9041 228.902 61.3629 228.902 61.8873C228.902 62.3243 228.705 62.8487 228.312 63.4604C227.394 64.7277 226.127 65.7546 224.51 66.5412C222.893 67.284 221.233 67.6555 219.528 67.6555C216.644 67.6555 214.372 66.8034 212.711 65.0991C211.051 63.3949 210.221 61.057 210.221 58.0856V38.8802H206.681C204.933 38.8802 204.059 38.2028 204.059 36.8482C204.059 36.2364 204.278 35.7557 204.715 35.4062C205.195 35.0566 205.851 34.8818 206.681 34.8818H210.221V23.6732C210.221 22.8429 210.417 22.2093 210.811 21.7723C211.247 21.2916 211.859 21.0513 212.646 21.0513C213.389 21.0513 213.957 21.2916 214.35 21.7723C214.787 22.2093 215.006 22.8429 215.006 23.6732V34.8818H223.92C224.707 34.8818 225.318 35.0566 225.755 35.4062C226.236 35.712 226.476 36.1927 226.476 36.8482C226.476 38.2028 225.624 38.8802 223.92 38.8802H215.006V58.4788C215.006 61.8436 216.579 63.526 219.725 63.526C220.73 63.526 221.648 63.3293 222.478 62.9361C223.308 62.5428 224.138 61.9092 224.969 61.0352C225.624 60.336 226.258 59.9864 226.87 59.9864C227.263 59.9864 227.7 60.1612 228.181 60.5108ZM251.853 67.6555C248.357 67.6555 245.276 66.9782 242.611 65.6235C239.945 64.2252 237.891 62.2587 236.449 59.7242C235.007 57.1897 234.286 54.2401 234.286 50.8753C234.286 47.5543 235.007 44.6483 236.449 42.1575C237.891 39.623 239.945 37.6785 242.611 36.3238C245.276 34.9255 248.357 34.2263 251.853 34.2263C255.13 34.2263 257.971 34.6851 260.374 35.6028C262.777 36.5205 264.678 37.8751 266.077 39.6667C266.426 40.1474 266.601 40.6062 266.601 41.0432C266.601 41.6987 266.273 42.2886 265.618 42.813C265.312 43.0752 264.919 43.2063 264.438 43.2063C263.695 43.2063 262.996 42.8786 262.34 42.2231C260.024 39.6449 256.529 38.3558 251.853 38.3558C247.789 38.3558 244.643 39.4482 242.414 41.6332C240.229 43.7744 239.137 46.8551 239.137 50.8753C239.137 54.8519 240.251 57.9545 242.48 60.1831C244.708 62.4117 247.833 63.526 251.853 63.526C254.082 63.526 256.135 63.1983 258.014 62.5428C259.893 61.8436 261.445 60.8604 262.668 59.5931C263.411 58.8503 264.11 58.4788 264.766 58.4788C265.159 58.4788 265.596 58.6536 266.077 59.0032C266.688 59.5276 266.994 60.0957 266.994 60.7075C266.994 61.2755 266.754 61.7562 266.273 62.1495C264.132 64.0722 261.903 65.4706 259.587 66.3445C257.271 67.2185 254.693 67.6555 251.853 67.6555ZM276.885 67.6555C276.142 67.6555 275.552 67.437 275.115 67C274.722 66.5193 274.525 65.8638 274.525 65.0336V19.8714C274.525 19.0412 274.722 18.4075 275.115 17.9705C275.552 17.4899 276.142 17.2495 276.885 17.2495C277.628 17.2495 278.218 17.4899 278.655 17.9705C279.092 18.4075 279.31 19.0412 279.31 19.8714V40.7155C280.927 38.5743 282.871 36.9574 285.144 35.865C287.46 34.7725 289.972 34.2263 292.682 34.2263C296.833 34.2263 300.023 35.3843 302.252 37.7003C304.524 40.0163 305.66 43.3374 305.66 47.6635V65.0336C305.66 65.8638 305.442 66.5193 305.005 67C304.568 67.437 303.978 67.6555 303.235 67.6555C302.448 67.6555 301.858 67.437 301.465 67C301.072 66.5193 300.875 65.8638 300.875 65.0336V47.6635C300.875 41.4584 297.947 38.3558 292.092 38.3558C288.246 38.3558 285.144 39.4919 282.784 41.7643C280.468 44.0366 279.31 47.0517 279.31 50.8098V65.0336C279.31 65.8201 279.092 66.4538 278.655 66.9345C278.261 67.4151 277.671 67.6555 276.885 67.6555ZM324.1 67C320.779 67 318.201 66.126 316.366 64.3781C314.531 62.6302 313.613 60.1831 313.613 57.0368V30.8178C313.613 27.759 314.487 25.3774 316.235 23.6732C318.026 21.9689 320.495 21.1168 323.642 21.1168H338.783C343.852 21.1168 347.763 22.1874 350.516 24.3286C353.269 26.4699 354.646 29.5724 354.646 33.6364C354.646 35.6465 354.056 37.5255 352.876 39.2735C351.696 40.9777 350.166 42.2668 348.287 43.1407V43.2063C350.385 44.0366 352.089 45.3694 353.4 47.2047C354.755 48.9963 355.432 50.9409 355.432 53.0384C355.432 57.4082 354.012 60.8385 351.172 63.3293C348.375 65.7764 344.508 67 339.57 67H324.1ZM338.783 40.06C341.012 40.06 342.738 39.5138 343.961 38.4213C345.229 37.3289 345.862 35.7557 345.862 33.7019C345.862 31.6918 345.272 30.2061 344.092 29.2447C342.913 28.2833 341.143 27.8027 338.783 27.8027H325.018C324.144 27.8027 323.445 28.0867 322.921 28.6548C322.44 29.2229 322.2 30.0094 322.2 31.0145V40.06H338.783ZM338.783 60.3142C344.027 60.3142 346.649 57.9326 346.649 53.1695C346.649 51.1157 345.95 49.5207 344.551 48.3845C343.197 47.2484 341.274 46.6803 338.783 46.6803H322.2V57.1023C322.2 58.1074 322.44 58.894 322.921 59.462C323.445 60.0301 324.144 60.3142 325.018 60.3142H338.783ZM374.587 67.6555C371.878 67.6555 369.475 67.1966 367.377 66.279C365.323 65.3613 363.706 64.0941 362.527 62.4772C361.39 60.8167 360.822 58.9158 360.822 56.7746C360.822 53.5409 362.155 50.9627 364.821 49.04C367.53 47.1173 371.179 46.1559 375.767 46.1559C379.744 46.1559 382.934 47.008 385.337 48.7123V47.1391C385.337 45.0853 384.703 43.5122 383.436 42.4197C382.169 41.3273 380.334 40.781 377.93 40.781C374.347 40.781 371.266 41.5458 368.688 43.0752C367.596 43.687 366.656 43.9929 365.87 43.9929C364.908 43.9929 364.056 43.5559 363.313 42.6819C362.833 42.0701 362.592 41.4365 362.592 40.781C362.592 39.6886 363.16 38.7272 364.296 37.897C365.87 36.7608 367.858 35.865 370.261 35.2095C372.665 34.554 375.199 34.2263 377.865 34.2263C382.934 34.2263 386.91 35.3843 389.794 37.7003C392.722 39.9726 394.186 43.1189 394.186 47.1391V63.9848C394.186 65.121 393.793 66.0168 393.006 66.6723C392.263 67.3277 391.236 67.6555 389.925 67.6555C388.571 67.6555 387.522 67.3496 386.779 66.7378C386.036 66.126 385.665 65.2521 385.665 64.1159V63.3949C383.174 66.2353 379.482 67.6555 374.587 67.6555ZM376.619 61.6251C379.372 61.6251 381.514 61.21 383.043 60.3797C384.616 59.5057 385.403 58.304 385.403 56.7746C385.403 55.3326 384.616 54.1746 383.043 53.3006C381.47 52.4266 379.372 51.9896 376.75 51.9896C374.391 51.9896 372.555 52.4048 371.244 53.235C369.977 54.0653 369.344 55.2452 369.344 56.7746C369.344 58.304 369.977 59.5057 371.244 60.3797C372.512 61.21 374.303 61.6251 376.619 61.6251ZM417.713 67.6555C411.858 67.6555 407.313 66.1916 404.08 63.2638C400.846 60.2923 399.229 56.1628 399.229 50.8753C399.229 45.5879 400.846 41.5021 404.08 38.618C407.313 35.6902 411.858 34.2263 417.713 34.2263C420.816 34.2263 423.613 34.7507 426.103 35.7994C428.638 36.8045 430.626 38.2465 432.068 40.1256C432.593 40.781 432.855 41.4802 432.855 42.2231C432.855 43.3592 432.265 44.3643 431.085 45.2383C430.561 45.6315 429.905 45.8282 429.119 45.8282C428.507 45.8282 427.873 45.6971 427.218 45.4349C426.562 45.129 425.994 44.7139 425.514 44.1895C424.64 43.1844 423.503 42.4197 422.105 41.8953C420.75 41.3273 419.287 41.0432 417.713 41.0432C414.611 41.0432 412.186 41.9172 410.438 43.6651C408.733 45.3694 407.881 47.7728 407.881 50.8753C407.881 54.0653 408.733 56.5343 410.438 58.2822C412.186 59.9864 414.611 60.8385 417.713 60.8385C421.166 60.8385 424.115 59.6805 426.562 57.3645C427.786 56.141 428.988 55.5292 430.167 55.5292C430.954 55.5292 431.675 55.7914 432.33 56.3158C433.379 57.146 433.904 58.1511 433.904 59.331C433.904 60.0738 433.598 60.7948 432.986 61.494C430.976 63.6352 428.725 65.2084 426.235 66.2134C423.787 67.1748 420.947 67.6555 417.713 67.6555ZM443.512 67.6555C442.157 67.6555 441.109 67.3059 440.366 66.6067C439.623 65.9075 439.251 64.9462 439.251 63.7226V21.1824C439.251 19.9588 439.623 18.9975 440.366 18.2983C441.109 17.5991 442.157 17.2495 443.512 17.2495C444.823 17.2495 445.872 17.5991 446.658 18.2983C447.445 18.9975 447.838 19.9588 447.838 21.1824V47.2702L466.978 34.9473C467.939 34.3355 468.813 34.0297 469.6 34.0297C470.867 34.0297 471.785 34.6196 472.353 35.7994C472.702 36.586 472.877 37.2415 472.877 37.7659C472.877 38.902 472.2 39.8852 470.845 40.7155L460.685 47.008C464.531 49.3241 467.393 51.7712 469.272 54.3494C471.195 56.9276 472.375 59.9646 472.812 63.4604C472.855 63.6352 472.877 63.8974 472.877 64.247C472.877 65.3395 472.549 66.1916 471.894 66.8034C471.282 67.3714 470.408 67.6555 469.272 67.6555C468.092 67.6555 467.109 67.4151 466.322 66.9345C465.58 66.4538 465.099 65.7546 464.88 64.8369C464.225 62.3024 463.482 60.2486 462.652 58.6755C461.865 57.1023 460.816 55.7477 459.506 54.6115C458.238 53.4317 456.512 52.23 454.327 51.0064L447.838 55.4637V63.7226C447.838 64.9462 447.445 65.9075 446.658 66.6067C445.872 67.3059 444.823 67.6555 443.512 67.6555Z" fill="black"/>
<g clip-path="url(#clip1_82_6)">
<mask id="mask0_82_6" style="mask-type:luminance" maskUnits="userSpaceOnUse" x="2" y="-2" width="100" height="99">
<path d="M101.052 -2H2.73114V96.3211H101.052V-2Z" fill="white"/>
</mask>
<g mask="url(#mask0_82_6)">
<path d="M91.3857 76.9307C91.6153 77.7871 91.5965 78.6398 91.3296 79.4882C91.08 80.4022 90.6548 81.1873 90.0537 81.8425C89.3866 82.5158 88.6246 82.967 87.7681 83.1963C86.9117 83.426 86.059 83.4072 85.211 83.1403C84.2966 82.8906 83.5031 82.4324 82.8298 81.7657C82.1746 81.1642 81.7322 80.4357 81.5025 79.5788C81.2732 78.7223 81.2828 77.8371 81.5324 76.9226C81.7994 76.0746 82.2664 75.3137 82.9335 74.6405C83.5346 73.9853 84.2635 73.5428 85.12 73.3131C85.9765 73.0839 86.8621 73.0938 87.7762 73.3431C88.6246 73.61 89.3762 74.044 90.0318 74.6455C90.7047 75.3126 91.1564 76.0742 91.3857 76.9307ZM81.8877 80.4668L60.3527 39.6293L69.4555 34.8596L90.9908 75.6974L81.8877 80.4668ZM69.906 35.9912C70.1356 36.8475 70.1168 37.7002 69.8499 38.5486C69.6003 39.4626 69.1421 40.2565 68.4749 40.9294C67.8739 41.585 67.1449 42.0274 66.2884 42.2567C65.432 42.4864 64.5467 42.4764 63.6322 42.2272C62.7838 41.9602 62.0234 41.4928 61.3501 40.8261C60.6949 40.2246 60.2525 39.4961 60.0228 38.6392C59.7935 37.7827 59.8119 36.9305 60.0792 36.082C60.3285 35.1678 60.7537 34.383 61.3551 33.7276C62.0218 33.0545 62.7838 32.6032 63.6403 32.3737C64.4968 32.1442 65.3494 32.163 66.1978 32.43C67.1119 32.6793 67.9058 33.1375 68.5786 33.8046C69.2339 34.4058 69.6767 35.1346 69.906 35.9912ZM60.7694 40.24L43.4714 15.2154L51.8614 9.36587L69.1593 34.3905L60.7694 40.24ZM52.7055 11.1765C52.9352 12.033 52.9164 12.8855 52.6495 13.7338C52.3998 14.6481 51.9416 15.4417 51.2745 16.1148C50.6734 16.7702 49.9445 17.2127 49.088 17.4422C48.2315 17.6717 47.3463 17.6617 46.4318 17.4124C45.5838 17.1454 44.823 16.6783 44.1497 16.0113C43.4945 15.4101 43.052 14.6812 42.8224 13.8247C42.5931 12.9681 42.6115 12.1157 42.8788 11.2673C43.1281 10.3531 43.5532 9.56831 44.1547 8.91286C44.8214 8.23982 45.5834 7.78851 46.4399 7.55903C47.2963 7.32951 48.149 7.34825 48.9974 7.61525C49.9115 7.86463 50.7053 8.32286 51.3782 8.98991C52.0338 9.59109 52.4763 10.32 52.7055 11.1765ZM52.7674 13.3844L48.7105 37.7754L38.7034 36.0079L42.7605 11.6168L52.7674 13.3844ZM48.6264 35.3312C48.856 36.1877 48.8372 37.0403 48.5703 37.8884C48.321 38.8028 47.8625 39.5963 47.1957 40.2696C46.5943 40.9248 45.8657 41.3672 45.0088 41.5969C44.1524 41.8262 43.2671 41.8166 42.3526 41.5669C41.5046 41.3 40.7438 40.833 40.0707 40.1659C39.4153 39.5648 38.9728 38.8358 38.7433 37.9794C38.5138 37.1229 38.5326 36.2704 38.7996 35.422C39.0489 34.5078 39.4742 33.723 40.0754 33.0676C40.7424 32.3945 41.5042 31.9432 42.3607 31.7137C43.2172 31.4842 44.0698 31.5029 44.9182 31.7699C45.8323 32.0193 46.6261 32.4775 47.299 33.1446C47.9546 33.7458 48.3971 34.4746 48.6264 35.3312ZM39.3117 39.3102L20.4248 8.35551L29.1711 3.04597L48.0579 34.0005L39.3117 39.3102ZM29.8356 4.58082C30.0651 5.43737 30.0463 6.2898 29.7793 7.13813C29.53 8.05236 29.0718 8.84604 28.4047 9.51911C27.8035 10.1745 27.0747 10.617 26.2181 10.8465C25.3616 11.076 24.4762 11.0661 23.5619 10.8167C22.7136 10.5497 21.9529 10.0827 21.2798 9.41557C20.6244 8.81439 20.1819 8.08555 19.9524 7.229C19.7229 6.37245 19.7417 5.52002 20.0087 4.67165C20.258 3.75742 20.6833 2.97262 21.2845 2.31721C21.9516 1.64413 22.7134 1.19284 23.5699 0.96333C24.4264 0.733819 25.2789 0.752573 26.1272 1.01958C27.0415 1.26894 27.8351 1.72716 28.5082 2.39421C29.1636 2.99543 29.6061 3.72427 29.8356 4.58082ZM29.28 8.43716L22.045 20.9685L13.2731 15.904L20.508 3.37266L29.28 8.43716ZM22.5755 16.8641C22.8051 17.7207 22.7863 18.5731 22.5193 19.4215C22.2699 20.3357 21.8117 21.1293 21.1446 21.8024C20.5434 22.4578 19.8146 22.9003 18.9581 23.1298C18.1015 23.3593 17.2161 23.3494 16.3019 23.1C15.4536 22.833 14.6928 22.366 14.0198 21.6989C13.3644 21.0977 12.9219 20.3688 12.6924 19.5123C12.4629 18.6558 12.4817 17.8033 12.7487 16.955C12.998 16.0408 13.4233 15.2559 14.0244 14.6005C14.6915 13.9274 15.4533 13.4762 16.3099 13.2466C17.1664 13.0172 18.0189 13.0359 18.8672 13.3029C19.7815 13.5523 20.5751 14.0105 21.2482 14.6776C21.9036 15.2787 22.346 16.0076 22.5755 16.8641Z" fill="#7BF1A8"/>
</g>
</g>
</g>
<defs>
<clipPath id="clip0_82_6">
<rect width="479" height="84" fill="white"/>
</clipPath>
<clipPath id="clip1_82_6">
<rect width="98.3211" height="98.3211" fill="white" transform="translate(2.73114 -2)"/>
</clipPath>
</defs>
</svg>
